Coordinates
version=1
nRows=16
nColumns=22
inDegrees=yes

Units are S.I. units (second, meters, Newtons, ...)
If the header above contains a line with 'inDegrees', this indicates whether rotational values are in degrees (yes) or radians (no).

endheader
time	pelvis_tilt	pelvis_list	pelvis_rotation	pelvis_tx	pelvis_ty	pelvis_tz	hip_flexion_r	hip_adduction_r	hip_rotation_r	knee_angle_r	ankle_angle_r	subtalar_angle_r	hip_flexion_l	hip_adduction_l	hip_rotation_l	knee_angle_l	ankle_angle_l	subtalar_angle_l	lumbar_extension	lumbar_bending	lumbar_rotation
      4.46000000	      0.07466518	     -4.66324774	     -7.80231568	      1.14532111	      1.00906281	     -0.14995396	     -3.47880603	      6.40301358	      3.24820425	    -30.69962365	      5.04382677	     14.13504519	      6.70374527	     -0.77708919	      0.16746178	    -19.58255184	     11.47013291	     -6.31505535	    -10.92460827	      4.78211615	      4.33298561
      4.47000000	      0.09194734	     -4.60011787	     -7.90176405	      1.14603135	      1.00900564	     -0.15016109	     -3.45023940	      6.28744402	      3.39259925	    -30.83432596	      5.00643859	     14.29951837	      6.53382109	     -0.68903283	      0.04876528	    -19.38943017	     11.49540465	     -6.37111118	    -10.98469341	      4.66422633	      4.36720452
      4.48000000	      0.14101369	     -4.53889368	     -7.99769417	      1.14680293	      1.00901186	     -0.15035117	     -3.47512057	      6.17492732	      3.56889679	    -30.94178288	      4.99800858	     14.55191680	      6.31781290	     -0.60235609	     -0.09434506	    -19.17925371	     11.50631854	     -6.45583390	    -11.06390660	      4.53999384	      4.37518754
      4.49000000	      0.18556201	     -4.47777601	     -8.08895301	      1.14752936	      1.00901295	     -0.15057710	     -3.47548553	      6.05984673	      3.71798863	    -31.07612185	      4.96590630	     14.78088799	      6.10816282	     -0.51161723	     -0.20978815	    -18.96516558	     11.53224560	     -6.52972524	    -11.14497832	      4.41920793	      4.39174302
      4.50000000	      0.20232425	     -4.40368496	     -8.18649253	      1.14824601	      1.00896346	     -0.15079908	     -3.42527289	      5.93349743	      3.84259454	    -31.24377966	      4.93744722	     14.90453466	      5.93459873	     -0.41211012	     -0.34113376	    -18.75737010	     11.53083487	     -6.56758387	    -11.18605752	      4.28583395	      4.41066925
      4.51000000	      0.23896638	     -4.33516497	     -8.27990150	      1.14897143	      1.00894530	     -0.15103495	     -3.40032296	      5.81020242	      3.96756000	    -31.40382714	      4.91595457	     15.07747426	      5.73858333	     -0.31526709	     -0.47335388	    -18.54707078	     11.53859432	     -6.61937784	    -11.24805850	      4.15569689	      4.42101146
      4.52000000	      0.29044539	     -4.27667263	     -8.36628107	      1.14974107	      1.00894745	     -0.15126216	     -3.40128658	      5.69588106	      4.08178537	    -31.55030507	      4.90358008	     15.29764180	      5.52609827	     -0.22763873	     -0.60286404	    -18.34269034	     11.54776195	     -6.68485873	    -11.31458688	      4.03078718	      4.40648268
      4.53000000	      0.33668102	     -4.22320151	     -8.44210732	      1.15045439	      1.00892284	     -0.15153654	     -3.37904657	      5.58397355	      4.16043795	    -31.71974864	      4.87028567	     15.49878512	      5.33606993	     -0.14165962	     -0.70558032	    -18.16195820	     11.57869497	     -6.74588217	    -11.38686431	      3.91657331	      4.40139647
      4.54000000	      0.35327403	     -4.16094931	     -8.51950440	      1.15115453	      1.00883199	     -0.15181931	     -3.31169212	      5.46483553	      4.21017542	    -31.90951996	      4.84372736	     15.58703827	      5.19300393	     -0.05047410	     -0.81330990	    -18.00423353	     11.59461648	     -6.77441901	    -11.42070095	      3.79657977	      4.39666108
      4.55000000	      0.36489570	     -4.11372872	     -8.57803036	      1.15188203	      1.00871775	     -0.15212411	     -3.25169116	      5.36300291	      4.23493948	    -32.07996638	      4.79128915	     15.66170304	      5.06492461	      0.02466912	     -0.90885583	    -17.86833388	     11.66697709	     -6.80118783	    -11.44280281	      3.69563044	      4.36390371
      4.56000000	      0.42091963	     -4.05830627	     -8.66196188	      1.15261056	      1.00866319	     -0.15241872	     -3.23446489	      5.24083495	      4.28931754	    -32.26208997	      4.82234741	     15.89678459	      4.87949077	      0.11631089	     -1.02806400	    -17.71425681	     11.66012351	     -6.88760108	    -11.51910158	      3.57824960	      4.37226310
      4.57000000	      0.43655199	     -4.01817349	     -8.71617748	      1.15328141	      1.00851193	     -0.15275459	     -3.16086207	      5.14311733	      4.28829786	    -32.46217085	      4.76475340	     15.95031866	      4.77812427	      0.18823893	     -1.10231570	    -17.63308710	     11.74352629	     -6.91009881	    -11.55531679	      3.48690685	      4.35858671
      4.58000000	      0.46086247	     -3.96855335	     -8.78062149	      1.15393189	      1.00836360	     -0.15306285	     -3.08689628	      5.03546038	      4.29881331	    -32.67818073	      4.74788978	     16.03834884	      4.66672044	      0.27010607	     -1.19556724	    -17.54370567	     11.79377559	     -6.94669177	    -11.60195045	      3.37493434	      4.36597568
      4.59000000	      0.48998643	     -3.92596288	     -8.84669351	      1.15456097	      1.00821087	     -0.15338138	     -3.01246542	      4.93273929	      4.30764832	    -32.90292269	      4.72560143	     16.14563352	      4.55920249	      0.34706628	     -1.28002818	    -17.47207486	     11.84852352	     -6.98965717	    -11.65652682	      3.27325112	      4.38185313
      4.60000000	      0.52112507	     -3.88670198	     -8.91003366	      1.15516166	      1.00805745	     -0.15369770	     -2.93267950	      4.83546828	      4.31781965	    -33.13834236	      4.69520017	     16.26901229	      4.45616877	      0.42121504	     -1.36087270	    -17.40882105	     11.90394074	     -7.03617331	    -11.71631423	      3.17233319	      4.40653641
      4.61000000	      0.56326619	     -3.85170327	     -8.97983930	      1.15575526	      1.00793336	     -0.15401110	     -2.86403659	      4.74373440	      4.36550163	    -33.37644959	      4.70747379	     16.61631491	      4.33243656	      0.49240317	     -1.44939979	    -17.32759678	     11.91760089	     -7.15211990	    -11.78859628	      3.07462547	      4.44070800
